<?xml version="1.0" encoding="UTF-8"?>
<svg id="Layer_1" xmlns="http://www.w3.org/2000/svg" version="1.1" viewBox="0 0 120 120">
  <!-- Generator: Adobe Illustrator 30.2.1, SVG Export Plug-In . SVG Version: 2.1.1 Build 1)  -->
  <defs>
    <style>
      .constellation-c { fill: #3880ee; }
    </style>
  </defs>
  <path class="constellation-c" d="M65.06,96.6c.28.94-.13,1.99-.99,2.34-1.04.44-2.11.01-2.55-.93-.41-.9-.07-2.12,1.02-2.54,1.13-.43,2.22.11,2.52,1.13Z"/>
  <path class="constellation-c" d="M23.34,84.92c1.73.7,3.55.27,4.87-1.23l9.23,3.9,21.54,9.18c-.11,2.1,1.13,3.9,2.97,4.51,1.83.61,3.85-.06,5-1.89l19.24,4.71c.2-.82.25-1.47.55-2.25l-19.25-4.81c-.13-1.91-1.25-3.33-2.86-3.91-1.69-.6-3.51-.06-4.74,1.46l-30.77-13.1c.2-2.3-1.13-4.04-3.2-4.7l-.92-19.8c1.96-.81,3.02-2.56,2.84-4.47-.17-1.79-1.38-3.3-3.24-3.79l-.76-15.42-2.34.14.7,15.46c-1.89.73-2.89,2.42-2.76,4.3.12,1.78,1.33,3.36,3.2,3.88l.91,19.84c-1.75.72-2.83,2.28-2.82,4.04.02,1.75,1.14,3.34,2.63,3.95ZM101.78,84.04l8.52,6.52c-2.89,4.35-8.36,9.44-12.63,12.26-.52.34-.1.84-.12,1.3-.07,1.7-.8,3.48-2.11,4.53-2.28,1.84-5.44,1.68-7.47-.33-20.62,8.9-44.61,4.75-60.88-10.61-7.9-7.46-13.36-17.09-15.57-27.74-2.7-13.03-.03-26.48,7.26-37.8-2.35-2.2-2.6-5.68-.44-8.02,2.06-2.22,5.95-2.49,8.11.07,7.33-7.96,17.18-13.62,28.17-15.92,18.48-4.06,38.78,1.65,51.44,16.28l-17.64,14.31c-1.33-1.45-2.66-2.74-4.22-3.88-.12-.17-.2-.35-.15-.46.04-.1.21-.4.39-.35,1.94.65,3.8-.08,4.87-1.7,1.05-1.6.65-3.82-.71-5.12-1.46-1.4-3.64-1.33-5.35-.15l-16.6-10.25c.37-1.74-.03-3.35-1.08-4.51-1.13-1.26-2.8-1.88-4.52-1.49-2.23.49-3.64,2.49-3.8,4.7-.84.45-1.62.54-2.52.81l-27.52,8.47c.28.9.48,1.49.83,2.16l29.84-9.18c.87,1.25,2.06,2.1,3.32,2.32,1.61.28,2.95-.21,4.2-1.32l7.84,4.78,5.63,3.49,3.08,1.96c-.52,2.34.58,2.94.5,3.69-.02.17-.36.56-.52.46-3.51-2.1-7.16-3.69-11.25-4.34-11.79-1.88-23.6,3.39-29.89,13.6-6.99,11.34-5.41,26.07,3.67,35.66,11.63,12.28,30.68,12.21,42.49.33.76-.77,1.35-1.55,2.18-2.14l1.33,22.33c.95-.15,1.54-.26,2.29-.16l-1.27-22.36,10.31,7.8Z"/>
  <path class="constellation-c" d="M25.62,82.73c-.9.36-1.95-.02-2.39-.98-.38-.82-.1-2.08.99-2.54,1.05-.44,2.08.18,2.43,1.02.4.98-.04,2.1-1.02,2.49Z"/>
  <path class="constellation-c" d="M23.06,51.15c1.07-.41,2.08.26,2.39,1.23.29.92-.21,2.04-1.24,2.39-.88.3-1.94-.17-2.3-1.1-.37-.94-.03-2.07,1.15-2.52Z"/>
  <path class="constellation-c" d="M61.17,13.38c1.42-.47,2.75.18,3.14,1.47.35,1.15-.18,2.57-1.37,2.95-1.26.41-2.63-.06-3.11-1.32-.43-1.11-.02-2.65,1.34-3.1Z"/>
  <path class="constellation-c" d="M85.38,28.74c1.01-.31,1.9.41,2.09,1.13.27,1.02-.26,1.86-1.08,2.11-.95.29-1.86-.17-2.13-1.03-.28-.87.09-1.9,1.12-2.21Z"/>
</svg>