<?xml version="1.0" encoding="UTF-8"?>
<svg id="Layer_1" xmlns="http://www.w3.org/2000/svg" version="1.1" viewBox="0 0 180 120">
  <!-- Generator: Adobe Illustrator 30.2.1, SVG Export Plug-In . SVG Version: 2.1.1 Build 1)  -->
  <defs>
    <style>
      .st0 {
        fill: #377fed;
      }

      .st1 {
        fill: #3880ee;
      }

      .st2 {
        fill: #fff;
        stroke: #3880ee;
        stroke-miterlimit: 10;
        stroke-width: 3px;
      }

      .st3 {
        fill: #3d4e60;
      }
    </style>
  </defs>
  <path class="st3" d="M171.03,49.71v18.3c-.84.24-1.55.12-2.37.05l-4.02-12.26.13,12.25c-.85.11-1.62.12-2.49,0l.03-18.35c.85-.07,1.59-.12,2.36.02l3.97,11.73v-11.76c.83-.07,1.53-.09,2.4,0h0v.02Z"/>
  <path class="st3" d="M157.8,50.27c2.16,1.67,2.17,6.58,2.16,9.1,0,2.14-.12,4.25-.78,6.23-.58,1.74-1.97,2.7-3.82,2.76-4.8.15-5.14-5.13-5.14-8.8,0-2.6-.04-8.05,2.48-9.53,1.52-.89,3.69-.85,5.09.23h.01ZM156.96,64.19c.55-3.56.47-7.16-.03-10.63-.16-1.13-.91-1.82-1.93-1.78-.82.03-1.58.69-1.74,1.73-.56,3.59-.6,7.33.06,10.89.19,1.04.99,1.64,1.87,1.6.87-.04,1.6-.68,1.77-1.81Z"/>
  <path class="st3" d="M147.91,49.71l.02,18.32c-.86.19-1.63.13-2.53.04v-18.34c.91-.12,1.66-.09,2.52,0h0v-.02Z"/>
  <path class="st3" d="M144.01,49.68c.09.75.08,1.39.03,2.13l-2.75.09v16.14c-.83.18-1.59.1-2.52.05v-16.14l-2.81-.12c-.09-.73-.1-1.39,0-2.15h8.05Z"/>
  <path class="st3" d="M132.45,49.72l3.99,18.33c-.85.12-1.7.11-2.56.03l-.7-3.55-3.64.02-.67,3.51c-.8.09-1.56.09-2.5,0l3.95-18.36c.76-.08,1.38-.11,2.15.02,0,0-.02,0-.02,0ZM132.76,62.47l-1.38-8.77-1.49,8.75c1,.09,1.79.06,2.87.02h0Z"/>
  <path class="st3" d="M125.37,65.97c.09.73.08,1.38.02,2.14h-6.78v-18.34c.87-.17,1.67-.14,2.56-.02l-.06,16.14,4.27.08h0Z"/>
  <path class="st3" d="M117.15,65.95c.2.67.06,1.35.09,2.15h-6.68v-18.39c.9-.07,1.64-.08,2.52-.02l.02,16.25h4.05Z"/>
  <path class="st1" d="M100.24,84.05l8.52,6.52c-2.89,4.35-8.36,9.44-12.63,12.26-.52.34-.1.84-.12,1.3-.07,1.7-.8,3.48-2.11,4.53-2.28,1.84-5.44,1.68-7.47-.33-20.62,8.9-44.61,4.75-60.88-10.61-7.9-7.46-13.36-17.09-15.57-27.74-2.7-13.03-.03-26.48,7.26-37.8-2.35-2.2-2.6-5.68-.44-8.02,2.06-2.22,5.95-2.49,8.11.07,7.33-7.96,17.18-13.62,28.17-15.92,18.48-4.06,38.78,1.65,51.44,16.28l-17.64,14.31c-1.33-1.45-2.66-2.74-4.22-3.88-.12-.17-.2-.35-.15-.46.04-.1.21-.4.39-.35,1.94.65,3.8-.08,4.87-1.7,1.05-1.6.65-3.82-.71-5.12-1.46-1.4-3.64-1.33-5.35-.15l-16.6-10.25c.37-1.74-.03-3.35-1.08-4.51-1.13-1.26-2.8-1.88-4.52-1.49-2.23.49-3.64,2.49-3.8,4.7-.84.45-1.62.54-2.52.81l-27.52,8.47c.28.9.48,1.49.83,2.16l29.84-9.18c.87,1.25,2.06,2.1,3.32,2.32,1.61.28,2.95-.21,4.2-1.32l7.84,4.78,5.63,3.49,3.08,1.96c-.52,2.34.58,2.94.5,3.69-.02.17-.36.56-.52.46-3.51-2.1-7.16-3.69-11.25-4.34-11.79-1.88-23.6,3.39-29.89,13.6-6.99,11.34-5.41,26.07,3.67,35.66,11.63,12.28,30.68,12.21,42.49.33.76-.77,1.35-1.55,2.18-2.14l1.33,22.33c.95-.15,1.54-.26,2.29-.16l-1.27-22.36,10.31,7.8h0ZM85.21,101.88l-19.25-4.81c-.13-1.91-1.25-3.33-2.86-3.91-1.69-.6-3.51-.06-4.74,1.46l-30.77-13.1c.2-2.3-1.13-4.04-3.2-4.7l-.92-19.8c1.96-.81,3.02-2.56,2.84-4.47-.17-1.79-1.38-3.3-3.24-3.79l-.76-15.42-2.34.14.7,15.46c-1.89.73-2.89,2.42-2.76,4.3.12,1.78,1.33,3.36,3.2,3.88l.91,19.84c-1.75.72-2.83,2.28-2.82,4.04.02,1.75,1.14,3.34,2.63,3.95,1.73.7,3.55.27,4.87-1.23l9.23,3.9,21.54,9.18c-.11,2.1,1.13,3.9,2.97,4.51,1.83.61,3.85-.06,5-1.89l19.24,4.71c.2-.82.25-1.47.55-2.25,0,0-.02,0-.02,0Z"/>
  <path class="st3" d="M108.48,65.97c.04.7.06,1.4,0,2.14l-6.78-.02v-18.41l6.78-.02c.06.75.05,1.43,0,2.14l-4.24.07.03,5.6,3.7.06c.12.67.09,1.31.05,2.17l-3.77.04v6.15s4.23.08,4.23.08Z"/>
  <path class="st3" d="M100.35,49.68c.09.72.08,1.45.02,2.17l-2.69.09-.04,6.25.02,9.87c-.8.13-1.63.11-2.52.02v-16.17l-2.76-.08c-.08-.75-.08-1.38.01-2.15,0,0,7.96,0,7.96,0Z"/>
  <path class="st3" d="M90.55,50.03c.13.87.16,1.67-.02,2.57-1.23-.98-2.87-1.18-3.77.02-.95,1.26-.52,3.01.53,4.05l2.27,2.24c2.17,2.14,2.7,5.79.64,8.21-1.43,1.68-4.09,1.57-5.89.44-.15-.98-.07-1.69-.03-2.62.88.52,1.63,1.02,2.63,1,1.09-.03,1.88-.81,1.98-1.9.41-4.38-5.42-4.58-5.14-10.07.08-1.59.6-3.19,2.06-4.02,1.45-.82,3.21-.61,4.74.09h0Z"/>
  <path class="st0" d="M85.93,29.88c.27,1.02-.26,1.86-1.08,2.11-.95.29-1.86-.17-2.13-1.03-.28-.87.09-1.9,1.12-2.21,1.01-.31,1.9.41,2.09,1.13Z"/>
  <path class="st3" d="M81.6,49.7v18.35c-.77.15-1.53.09-2.42.04l-4-11.96.09,11.95-2.45.05-.02-18.4c.82-.13,1.51-.06,2.36-.05l2.06,5.99,1.97,6.1-.08-12.05c.78-.11,1.54-.07,2.49,0h0v-.02Z"/>
  <path class="st3" d="M68.29,50.31c2.95,2.34,2.32,11.27,1.6,14.63-.49,2.28-2.19,3.55-4.42,3.42-3.26-.19-4.31-2.67-4.55-5.72-.24-3.06-.66-10.24,1.89-12.32,1.53-1.24,3.94-1.24,5.48-.02h0ZM65.74,66c2.41-.08,2.07-5.19,2.07-7.21,0-1.85,0-3.64-.43-5.4-.26-1.06-.96-1.7-2.03-1.59-.82.08-1.47.8-1.62,1.83-.53,3.55-.49,7.24.1,10.77.18,1.07.97,1.63,1.91,1.6Z"/>
  <path class="st0" d="M63.52,96.62c.28.94-.13,1.99-.99,2.34-1.04.44-2.11.01-2.55-.93-.41-.9-.07-2.12,1.02-2.54,1.13-.43,2.22.11,2.52,1.13Z"/>
  <path class="st0" d="M62.77,14.86c.35,1.15-.18,2.57-1.37,2.95-1.26.41-2.63-.06-3.11-1.32-.43-1.11-.02-2.65,1.34-3.1,1.42-.47,2.75.18,3.14,1.47Z"/>
  <path class="st3" d="M59.25,65.36c.14.9.11,1.59.04,2.48-1.53.71-3.52.79-5-.23-3.54-2.43-3-10.24-2.21-13.91.36-1.67,1.31-3.12,2.83-3.85,1.39-.67,3.04-.48,4.37.15l.02,2.31c-1.06-.44-1.94-.69-2.98-.27-2.3.92-2.18,5.81-2.14,7.92.03,1.52.15,3.03.88,4.44.86,1.64,2.71,2,4.19.96Z"/>
  <path class="st0" d="M25.1,80.25c.4.98-.04,2.1-1.02,2.49-.9.36-1.95-.02-2.39-.98-.38-.82-.1-2.08.99-2.54,1.05-.44,2.08.18,2.43,1.02h-.01Z"/>
  <path class="st0" d="M23.91,52.39c.29.92-.21,2.04-1.24,2.39-.88.3-1.94-.17-2.3-1.1-.37-.94-.03-2.07,1.15-2.52,1.07-.41,2.08.26,2.39,1.23Z"/>
  <circle class="st2" cx="90.36" cy="104.39" r="3.82"/>
  <circle class="st2" cx="20.8" cy="27.95" r="3.82"/>
</svg>